<?xml version="1.0" encoding="UTF-8"?>
<svg width="205px" height="50px" viewBox="0 0 205 50" version="1.1" xmlns="http://www.w3.org/2000/svg" xmlns:xlink="http://www.w3.org/1999/xlink">
    <!-- Generator: Sketch 52.5 (67469) - http://www.bohemiancoding.com/sketch -->
    <title>medoucine-annuaire-therapeute_blanc</title>
    <desc>Created with Sketch.</desc>
    <g id="Home" stroke="none" stroke-width="1" fill="none" fill-rule="evenodd">
        <g id="2019" transform="translate(-891.000000, -910.000000)" fill="#FFFFFF">
            <g id="trust" transform="translate(-368.000000, 796.000000)">
                <g id="logos" transform="translate(0.000000, 109.000000)">
                    <g id="medoucine-annuaire-therapeute_blanc" transform="translate(1259.000000, 5.000000)">
                        <g id="Group" transform="translate(55.555556, 43.703704)">
                            <polygon id="Path" points="0 6.07834758 0 1.38034188 0.535260464 1.38034188 0.535260464 5.59401709 2.48166215 5.59401709 2.48166215 6.07834758"></polygon>
                            <path d="M2.94393255,6.07834758 L5.08497441,1.21082621 L7.22601626,6.07834758 L6.64209575,6.07834758 L6.13116531,4.91595442 L4.01445348,4.91595442 L3.50352304,6.07834758 L2.94393255,6.07834758 Z M4.20909365,4.45584046 L5.91219512,4.45584046 L5.06064438,2.47008547 L4.20909365,4.45584046 Z" id="Shape" fill-rule="nonzero"></path>
                            <polygon id="Path" points="10.7052093 6.07834758 10.7052093 1.23504274 12.9922313 4.45584046 15.2792532 1.23504274 15.2792532 6.07834758 14.7439928 6.07834758 14.7439928 2.78490028 12.9922313 5.27920228 11.2404697 2.78490028 11.2404697 6.07834758"></polygon>
                            <path d="M16.6174044,6.07834758 L16.6174044,1.38034188 L19.2937067,1.38034188 L19.2937067,1.86467236 L17.1526649,1.86467236 L17.1526649,3.34188034 L19.1720566,3.34188034 L19.1720566,3.82621083 L17.1526649,3.82621083 L17.1526649,5.56980057 L19.3423668,5.56980057 L19.3423668,6.05413105 L16.6174044,6.05413105 L16.6174044,6.07834758 Z M17.6879253,1.06552707 L18.0528756,0.0968660969 L18.7341162,0.0968660969 L18.1015357,1.06552707 L17.6879253,1.06552707 Z" id="Shape" fill-rule="nonzero"></path>
                            <path d="M20.4615477,6.07834758 L20.4615477,1.38034188 L21.970009,1.38034188 C22.7242397,1.38034188 23.3081602,1.5982906 23.7461006,2.03418803 C24.184041,2.47008547 24.4030111,3.02706553 24.4030111,3.72934473 C24.4030111,4.43162393 24.184041,5.01282051 23.7461006,5.42450142 C23.3081602,5.86039886 22.7242397,6.05413105 21.970009,6.05413105 L20.4615477,6.05413105 L20.4615477,6.07834758 Z M20.9968082,5.59401709 L21.945679,5.59401709 C23.2108401,5.59401709 23.8920807,4.86752137 23.8920807,3.72934473 C23.8920807,2.59116809 23.2108401,1.86467236 21.945679,1.86467236 L20.9968082,1.86467236 L20.9968082,5.59401709 Z" id="Shape" fill-rule="nonzero"></path>
                            <polygon id="Path" points="25.4978621 6.07834758 25.4978621 1.38034188 28.1741644 1.38034188 28.1741644 1.86467236 26.0331226 1.86467236 26.0331226 3.34188034 28.0525143 3.34188034 28.0525143 3.82621083 26.0331226 3.82621083 26.0331226 5.56980057 28.2228245 5.56980057 28.2228245 6.05413105 25.4978621 6.05413105"></polygon>
                            <path d="M32.9671786,1.81623932 L32.9671786,2.42165242 C32.5778982,2.00997151 32.0669678,1.79202279 31.4830473,1.79202279 C30.9234568,1.79202279 30.4611864,1.98575499 30.0962361,2.34900285 C29.7312858,2.71225071 29.5366456,3.17236467 29.5366456,3.75356125 C29.5366456,4.33475783 29.7312858,4.79487179 30.0962361,5.15811966 C30.4611864,5.52136752 30.9234568,5.71509972 31.4830473,5.71509972 C32.0669678,5.71509972 32.5778982,5.497151 32.9671786,5.08547009 L32.9671786,5.69088319 C32.5778982,6.02991453 32.0912978,6.1994302 31.4830473,6.1994302 C30.8018067,6.1994302 30.2178862,5.98148148 29.7312858,5.497151 C29.2690154,5.03703704 29.0257151,4.45584046 29.0257151,3.75356125 C29.0257151,3.05128205 29.2690154,2.47008547 29.7312858,2.00997151 C30.2178862,1.54985755 30.8018067,1.30769231 31.4830473,1.30769231 C32.0912978,1.30769231 32.5778982,1.47720798 32.9671786,1.81623932 Z" id="Path"></path>
                            <polygon id="Path" points="34.2323397 6.07834758 34.2323397 1.38034188 34.7676001 1.38034188 34.7676001 6.07834758"></polygon>
                            <polygon id="Path" points="36.1544113 6.07834758 36.1544113 1.21082621 39.4632942 4.91595442 39.4632942 1.35612536 39.9985547 1.35612536 39.9985547 6.22364672 36.6896718 2.51851852 36.6896718 6.07834758"></polygon>
                            <polygon id="Path" points="41.3367058 6.07834758 41.3367058 1.38034188 44.0130081 1.38034188 44.0130081 1.86467236 41.8719663 1.86467236 41.8719663 3.34188034 43.891358 3.34188034 43.891358 3.82621083 41.8719663 3.82621083 41.8719663 5.56980057 44.0616682 5.56980057 44.0616682 6.05413105 41.3367058 6.05413105"></polygon>
                            <path d="M48.1004517,6.07834758 L48.1004517,1.38034188 L49.608913,1.38034188 C50.3631436,1.38034188 50.9470641,1.5982906 51.3850045,2.03418803 C51.8229449,2.47008547 52.0419151,3.02706553 52.0419151,3.72934473 C52.0419151,4.43162393 51.8229449,5.01282051 51.3850045,5.42450142 C50.9470641,5.86039886 50.3631436,6.05413105 49.608913,6.05413105 L48.1004517,6.05413105 L48.1004517,6.07834758 Z M48.6113821,5.59401709 L49.5602529,5.59401709 C50.825414,5.59401709 51.5066546,4.86752137 51.5066546,3.72934473 C51.5066546,2.59116809 50.825414,1.86467236 49.5602529,1.86467236 L48.6113821,1.86467236 L48.6113821,5.59401709 Z" id="Shape" fill-rule="nonzero"></path>
                            <path d="M52.8204758,3.75356125 C52.8204758,3.05128205 53.063776,2.47008547 53.5260464,2.00997151 C54.0126468,1.54985755 54.5965673,1.30769231 55.2778079,1.30769231 C55.9590485,1.30769231 56.542969,1.54985755 57.0052394,2.00997151 C57.4918398,2.47008547 57.71081,3.05128205 57.71081,3.75356125 C57.71081,4.45584046 57.4675098,5.03703704 57.0052394,5.497151 C56.542969,5.95726496 55.9590485,6.1994302 55.2778079,6.1994302 C54.5965673,6.1994302 54.0126468,5.98148148 53.5260464,5.497151 C53.063776,5.01282051 52.8204758,4.43162393 52.8204758,3.75356125 Z M53.3314062,3.75356125 C53.3314062,4.31054131 53.5260464,4.79487179 53.8909967,5.15811966 C54.255947,5.52136752 54.7182174,5.71509972 55.2778079,5.71509972 C55.8373984,5.71509972 56.2996688,5.52136752 56.6646191,5.15811966 C57.0295694,4.79487179 57.2242096,4.31054131 57.2242096,3.75356125 C57.2242096,3.1965812 57.0295694,2.73646724 56.6646191,2.34900285 C56.2996688,1.98575499 55.8373984,1.79202279 55.2778079,1.79202279 C54.7182174,1.79202279 54.255947,1.98575499 53.8909967,2.34900285 C53.5260464,2.71225071 53.3314062,3.1965812 53.3314062,3.75356125 Z" id="Shape" fill-rule="nonzero"></path>
                            <path d="M58.7570009,1.4045584 L59.2922614,1.4045584 L59.2922614,4.40740741 C59.2922614,5.25498575 59.7545318,5.69088319 60.5330924,5.69088319 C61.3116531,5.69088319 61.7739235,5.23076923 61.7739235,4.40740741 L61.7739235,1.4045584 L62.309184,1.4045584 L62.309184,4.45584046 C62.309184,5.01282051 62.1388738,5.42450142 61.8225836,5.73931624 C61.5062933,6.02991453 61.0683529,6.17521368 60.5330924,6.17521368 C59.997832,6.17521368 59.5842216,6.02991453 59.2436013,5.73931624 C58.9273111,5.42450142 58.7570009,5.01282051 58.7570009,4.45584046 L58.7570009,1.4045584 Z" id="Path"></path>
                            <path d="M67.2481783,1.81623932 L67.2481783,2.42165242 C66.8588979,2.00997151 66.3479675,1.79202279 65.764047,1.79202279 C65.2044565,1.79202279 64.7421861,1.98575499 64.3772358,2.34900285 C64.0122855,2.71225071 63.8176453,3.17236467 63.8176453,3.75356125 C63.8176453,4.33475783 64.0122855,4.79487179 64.3772358,5.15811966 C64.7421861,5.52136752 65.2044565,5.71509972 65.764047,5.71509972 C66.3479675,5.71509972 66.8588979,5.497151 67.2481783,5.08547009 L67.2481783,5.69088319 C66.8588979,6.02991453 66.3722975,6.1994302 65.764047,6.1994302 C65.0828064,6.1994302 64.4988859,5.98148148 64.0122855,5.497151 C63.5500151,5.03703704 63.3067148,4.45584046 63.3067148,3.75356125 C63.3067148,3.05128205 63.5500151,2.47008547 64.0122855,2.00997151 C64.4988859,1.54985755 65.0828064,1.30769231 65.764047,1.30769231 C66.3722975,1.30769231 66.8588979,1.47720798 67.2481783,1.81623932 Z" id="Path"></path>
                            <polygon id="Path" points="68.4890093 6.07834758 68.4890093 1.38034188 71.1653117 1.38034188 71.1653117 1.86467236 69.0242698 1.86467236 69.0242698 3.34188034 71.0436615 3.34188034 71.0436615 3.82621083 69.0242698 3.82621083 69.0242698 5.56980057 71.2139717 5.56980057 71.2139717 6.05413105 68.4890093 6.05413105"></polygon>
                            <polygon id="Path" points="75.2284252 6.07834758 75.2284252 1.38034188 77.9047275 1.38034188 77.9047275 1.86467236 75.7636856 1.86467236 75.7636856 3.34188034 77.7830774 3.34188034 77.7830774 3.82621083 75.7636856 3.82621083 75.7636856 5.56980057 77.9533875 5.56980057 77.9533875 6.05413105 75.2284252 6.05413105"></polygon>
                            <polygon id="Path" points="79.0725685 6.07834758 79.0725685 1.21082621 82.3814514 4.91595442 82.3814514 1.35612536 82.9167118 1.35612536 82.9167118 6.22364672 79.607829 2.51851852 79.607829 6.07834758"></polygon>
                            <polygon id="Path" points="87.5150858 6.07834758 87.5150858 1.86467236 86.2255947 1.86467236 86.2255947 1.38034188 89.3155074 1.38034188 89.3155074 1.86467236 88.0260163 1.86467236 88.0260163 6.07834758"></polygon>
                            <path d="M89.7291177,3.75356125 C89.7291177,3.05128205 89.9724179,2.47008547 90.4346883,2.00997151 C90.9212888,1.54985755 91.5052093,1.30769231 92.1864499,1.30769231 C92.8676905,1.30769231 93.451611,1.54985755 93.9138814,2.00997151 C94.4004818,2.47008547 94.619452,3.05128205 94.619452,3.75356125 C94.619452,4.45584046 94.3761518,5.03703704 93.9138814,5.497151 C93.451611,5.95726496 92.8676905,6.1994302 92.1864499,6.1994302 C91.5052093,6.1994302 90.9212888,5.98148148 90.4346883,5.497151 C89.9480879,5.01282051 89.7291177,4.43162393 89.7291177,3.75356125 Z M90.2400482,3.75356125 C90.2400482,4.31054131 90.4346883,4.79487179 90.7996387,5.15811966 C91.164589,5.52136752 91.6268594,5.71509972 92.1864499,5.71509972 C92.7460403,5.71509972 93.2083107,5.52136752 93.5732611,5.15811966 C93.9382114,4.79487179 94.1328516,4.31054131 94.1328516,3.75356125 C94.1328516,3.1965812 93.9382114,2.73646724 93.5732611,2.34900285 C93.2083107,1.96153846 92.7460403,1.79202279 92.1864499,1.79202279 C91.6268594,1.79202279 91.164589,1.98575499 90.7996387,2.34900285 C90.4346883,2.71225071 90.2400482,3.1965812 90.2400482,3.75356125 Z" id="Shape" fill-rule="nonzero"></path>
                            <path d="M95.6656429,1.4045584 L96.2009033,1.4045584 L96.2009033,4.40740741 C96.2009033,5.25498575 96.6631737,5.69088319 97.4417344,5.69088319 C98.2202951,5.69088319 98.6825655,5.23076923 98.6825655,4.40740741 L98.6825655,1.4045584 L99.217826,1.4045584 L99.217826,4.45584046 C99.217826,5.01282051 99.0475158,5.42450142 98.7312255,5.73931624 C98.4149353,6.02991453 97.9769949,6.17521368 97.4417344,6.17521368 C96.906474,6.17521368 96.4928636,6.02991453 96.1522433,5.73931624 C95.835953,5.42450142 95.6656429,5.01282051 95.6656429,4.45584046 L95.6656429,1.4045584 Z" id="Path"></path>
                            <polygon id="Path" points="101.383198 6.07834758 101.383198 1.86467236 100.093707 1.86467236 100.093707 1.38034188 103.183619 1.38034188 103.183619 1.86467236 101.894128 1.86467236 101.894128 6.07834758"></polygon>
                            <polygon id="Path" points="104.15682 6.07834758 104.15682 1.38034188 106.833123 1.38034188 106.833123 1.86467236 104.692081 1.86467236 104.692081 3.34188034 106.711472 3.34188034 106.711472 3.82621083 104.692081 3.82621083 104.692081 5.56980057 106.881783 5.56980057 106.881783 6.05413105 104.15682 6.05413105"></polygon>
                            <path d="M114.326769,1.81623932 L114.326769,2.42165242 C113.937489,2.00997151 113.426558,1.79202279 112.842638,1.79202279 C112.283047,1.79202279 111.820777,1.98575499 111.455827,2.34900285 C111.090876,2.71225071 110.896236,3.17236467 110.896236,3.75356125 C110.896236,4.33475783 111.090876,4.79487179 111.455827,5.15811966 C111.820777,5.52136752 112.283047,5.71509972 112.842638,5.71509972 C113.426558,5.71509972 113.937489,5.497151 114.326769,5.08547009 L114.326769,5.69088319 C113.937489,6.02991453 113.450888,6.1994302 112.842638,6.1994302 C112.161397,6.1994302 111.577477,5.98148148 111.090876,5.497151 C110.628606,5.03703704 110.385306,4.45584046 110.385306,3.75356125 C110.385306,3.05128205 110.628606,2.47008547 111.090876,2.00997151 C111.577477,1.54985755 112.161397,1.30769231 112.842638,1.30769231 C113.450888,1.30769231 113.937489,1.47720798 114.326769,1.81623932 Z" id="Path"></path>
                            <path d="M115.12966,3.75356125 C115.12966,3.05128205 115.37296,2.47008547 115.83523,2.00997151 C116.321831,1.54985755 116.905751,1.30769231 117.586992,1.30769231 C118.268232,1.30769231 118.852153,1.54985755 119.314423,2.00997151 C119.801024,2.47008547 120.019994,3.05128205 120.019994,3.75356125 C120.019994,4.45584046 119.776694,5.03703704 119.314423,5.497151 C118.852153,5.95726496 118.268232,6.1994302 117.586992,6.1994302 C116.905751,6.1994302 116.321831,5.98148148 115.83523,5.497151 C115.34863,5.01282051 115.12966,4.43162393 115.12966,3.75356125 Z M115.64059,3.75356125 C115.64059,4.31054131 115.83523,4.79487179 116.200181,5.15811966 C116.565131,5.52136752 117.027401,5.71509972 117.586992,5.71509972 C118.146582,5.71509972 118.608853,5.52136752 118.973803,5.15811966 C119.338753,4.79487179 119.533394,4.31054131 119.533394,3.75356125 C119.533394,3.1965812 119.338753,2.73646724 118.973803,2.34900285 C118.608853,1.96153846 118.146582,1.79202279 117.586992,1.79202279 C117.027401,1.79202279 116.565131,1.98575499 116.200181,2.34900285 C115.8109,2.71225071 115.64059,3.1965812 115.64059,3.75356125 Z" id="Shape" fill-rule="nonzero"></path>
                            <polygon id="Path" points="121.090515 6.07834758 121.090515 1.21082621 124.399398 4.91595442 124.399398 1.35612536 124.934658 1.35612536 124.934658 6.22364672 121.625775 2.51851852 121.625775 6.07834758"></polygon>
                            <polygon id="Path" points="126.297139 6.07834758 126.297139 1.38034188 128.754472 1.38034188 128.754472 1.86467236 126.80807 1.86467236 126.80807 3.39031339 128.584161 3.39031339 128.584161 3.87464387 126.80807 3.87464387 126.80807 6.07834758"></polygon>
                            <polygon id="Path" points="129.873653 6.07834758 129.873653 1.38034188 130.408913 1.38034188 130.408913 6.07834758"></polygon>
                            <path d="M131.406444,6.07834758 L133.547486,1.21082621 L135.688528,6.07834758 L135.104607,6.07834758 L134.593677,4.91595442 L132.476965,4.91595442 L131.966034,6.07834758 L131.406444,6.07834758 Z M132.671605,4.45584046 L134.374706,4.45584046 L133.523156,2.47008547 L132.671605,4.45584046 Z" id="Shape" fill-rule="nonzero"></path>
                            <polygon id="Path" points="136.661728 6.07834758 136.661728 1.21082621 139.970611 4.91595442 139.970611 1.35612536 140.505872 1.35612536 140.505872 6.22364672 137.196989 2.51851852 137.196989 6.07834758"></polygon>
                            <path d="M145.493526,1.81623932 L145.493526,2.42165242 C145.104246,2.00997151 144.593315,1.79202279 144.009395,1.79202279 C143.449804,1.79202279 142.987534,1.98575499 142.622584,2.34900285 C142.257633,2.71225071 142.062993,3.17236467 142.062993,3.75356125 C142.062993,4.33475783 142.257633,4.79487179 142.622584,5.15811966 C142.987534,5.52136752 143.449804,5.71509972 144.009395,5.71509972 C144.593315,5.71509972 145.104246,5.497151 145.493526,5.08547009 L145.493526,5.69088319 C145.104246,6.02991453 144.617645,6.1994302 144.009395,6.1994302 C143.328154,6.1994302 142.744234,5.98148148 142.257633,5.497151 C141.795363,5.03703704 141.552063,4.45584046 141.552063,3.75356125 C141.552063,3.05128205 141.795363,2.47008547 142.257633,2.00997151 C142.744234,1.54985755 143.328154,1.30769231 144.009395,1.30769231 C144.593315,1.30769231 145.104246,1.47720798 145.493526,1.81623932 Z" id="Path"></path>
                            <polygon id="Path" points="146.710027 6.07834758 146.710027 1.38034188 149.386329 1.38034188 149.386329 1.86467236 147.245288 1.86467236 147.245288 3.34188034 149.264679 3.34188034 149.264679 3.82621083 147.245288 3.82621083 147.245288 5.56980057 149.434989 5.56980057 149.434989 6.05413105 146.710027 6.05413105"></polygon>
                        </g>
                        <g id="Group">
                            <ellipse id="Oval" cx="27.3329379" cy="7.21682487" rx="7.19159967" ry="7.21682487"></ellipse>
                            <path d="M42.3964237,15.506421 C41.9833926,15.4820398 32.2407188,15.2382282 25.9480691,20.3095105 C22.6924125,22.9182952 19.4610518,29.0867299 16.1810992,31.7198958 C11.5405738,35.450214 4.54334168,36.0109808 1.99226748,36.0841243 C2.08945125,34.2311558 2.42959448,30.1595012 3.76587145,27.2093802 C6.36553754,21.5529499 14.9177101,20.8946585 14.990598,20.8946585 C15.5251087,20.8458961 15.9381398,20.382654 15.8895479,19.8462684 C15.840956,19.3098827 15.3793331,18.8954029 14.8448223,18.9441653 C14.4803831,18.9685464 5.05355652,19.6756002 1.96797153,26.4048018 C0,30.6715057 0,36.8155593 0,37.0593709 C0,37.5957566 0.413031062,38.0346175 0.947541848,38.0346175 C1.36057291,38.0346175 11.1032468,38.3028103 17.3958965,33.231528 C20.9674004,30.3545505 24.2473529,24.1617346 27.1628663,21.8211428 C31.8033918,18.0908245 38.8006239,17.5300577 41.3516981,17.4569142 C41.2545143,19.3098827 40.9143711,23.3815373 39.5780941,26.3316583 C36.978428,31.9880886 28.5963271,32.64638 28.4991433,32.64638 C27.9889284,32.6707612 27.5758974,33.1096222 27.5758974,33.6216267 L27.5758974,46.5680253 L15.9624357,46.5680253 L15.9624357,39.4974874 C15.9624357,38.9611018 15.5251087,38.5222408 14.990598,38.5222408 C14.4560872,38.5222408 14.0187602,38.9611018 14.0187602,39.4974874 L14.0187602,47.5432719 C14.0187602,48.0796575 14.4560872,48.5185185 14.990598,48.5185185 L28.5720311,48.5185185 C29.1065419,48.5185185 29.5438689,48.0796575 29.5438689,47.5432719 L29.5438689,34.5481109 C32.0220553,34.2067746 38.8006239,32.7439047 41.3516981,27.1849991 C43.3196696,22.8695328 43.3439656,16.7498604 43.3439656,16.4816676 C43.3439656,15.9696631 42.9309345,15.5308022 42.3964237,15.506421 Z" id="Path"></path>
                            <path d="M80.0794341,28.5259631 C80.0794341,26.2097525 80.7840165,24.3324028 82.2174773,22.9426763 C83.650938,21.5041876 85.4731339,20.7971338 87.7083608,20.7971338 C89.8464039,20.7971338 91.5471201,21.5041876 92.8591011,22.9426763 C94.1953781,24.3567839 94.8756645,26.1122278 94.8756645,28.1846268 C94.8756645,28.6234878 94.8513686,29.0623488 94.8270726,29.4524474 L83.5780502,29.4524474 C83.6995299,31.7930393 85.424542,33.2802903 87.9999121,33.2802903 C90.3080269,33.2802903 92.0573349,32.7195235 93.2721322,31.5736088 L93.2721322,34.8406849 C91.8386714,35.8403127 90.0407715,36.327936 87.8541365,36.327936 C85.5460217,36.327936 83.650938,35.6208822 82.2174773,34.2555369 C80.7840165,32.8414294 80.0794341,30.9884608 80.0794341,28.6722501 L80.0794341,28.5259631 Z M91.3041606,26.9411874 C91.3041606,26.0878466 90.9640174,25.3320305 90.259435,24.7225014 C89.5548526,24.1129723 88.7044945,23.7960171 87.6840648,23.7960171 C86.6150433,23.7960171 85.6675014,24.1129723 84.8900312,24.7225014 C84.112561,25.3320305 83.6995299,26.0634655 83.6266421,26.9411874 L91.3041606,26.9411874 Z" id="Shape" fill-rule="nonzero"></path>
                            <path d="M109.137384,23.4059185 L109.137384,15.506421 L112.636,15.506421 L112.636,36.327936 L109.137384,36.327936 L109.137384,33.8654383 C108.651465,35.303927 106.853565,36.327936 104.448267,36.327936 C102.383111,36.327936 100.633803,35.596501 99.2003427,34.1336311 C97.7911779,32.64638 97.1108914,30.8177927 97.1108914,28.6234878 C97.1108914,26.429183 97.8154738,24.6249767 99.2003427,23.1621068 C100.633803,21.6748558 102.383111,20.9434208 104.448267,20.9434208 C106.853565,20.9434208 108.651465,21.9674297 109.137384,23.4059185 Z M108.092658,31.8661828 C108.967313,31.012842 109.40464,29.9400707 109.40464,28.647869 C109.40464,27.3556672 108.967313,26.282896 108.092658,25.4295552 C107.2423,24.5762144 106.173279,24.1373534 104.90989,24.1373534 C103.646501,24.1373534 102.626071,24.5762144 101.800009,25.4295552 C100.973947,26.282896 100.585212,27.3556672 100.585212,28.647869 C100.585212,29.9400707 100.998243,31.012842 101.800009,31.8661828 C102.650367,32.7195235 103.670797,33.1583845 104.90989,33.1583845 C106.173279,33.1340034 107.2423,32.6951424 108.092658,31.8661828 Z" id="Shape" fill-rule="nonzero"></path>
                            <path d="M115.575809,28.5259631 C115.575809,26.3316583 116.35328,24.4543086 117.90822,22.9670575 C119.463161,21.4798064 121.358244,20.7239903 123.593471,20.7239903 C125.828698,20.7239903 127.723782,21.4798064 129.278722,22.9670575 C130.833663,24.4543086 131.611133,26.3316583 131.611133,28.5259631 C131.611133,30.720268 130.833663,32.5976177 129.278722,34.0848688 C127.723782,35.5721199 125.828698,36.327936 123.593471,36.327936 C121.358244,36.327936 119.463161,35.5721199 117.90822,34.0848688 C116.377576,32.5976177 115.575809,30.720268 115.575809,28.5259631 Z M126.824832,31.8174204 C127.699486,30.9153173 128.136813,29.8181649 128.136813,28.501582 C128.136813,27.1849991 127.699486,26.1122278 126.824832,25.2345059 C125.950178,24.3324028 124.881156,23.8935418 123.593471,23.8935418 C122.28149,23.8935418 121.212469,24.3324028 120.337815,25.2345059 C119.487457,26.1122278 119.05013,27.1849991 119.05013,28.501582 C119.05013,29.8181649 119.487457,30.8909362 120.337815,31.8174204 C121.212469,32.6951424 122.28149,33.1340034 123.593471,33.1340034 C124.881156,33.1340034 125.950178,32.6951424 126.824832,31.8174204 Z" id="Shape" fill-rule="nonzero"></path>
                            <path d="M134.405167,21.2116136 L137.928079,21.2116136 L137.928079,29.8181649 C137.928079,32.0368509 139.191468,33.1340034 141.135143,33.1340034 C143.078819,33.1340034 144.342208,32.0124698 144.342208,29.7937837 L144.342208,21.2116136 L147.86512,21.2116136 L147.86512,30.0132142 C147.86512,32.0612321 147.233426,33.6460078 145.945741,34.7187791 C144.658055,35.7915503 143.054523,36.327936 141.110848,36.327936 C139.167172,36.327936 137.56364,35.7915503 136.30025,34.7187791 C135.036861,33.6460078 134.405167,32.1099944 134.405167,30.0863577 L134.405167,21.2116136 Z" id="Path"></path>
                            <path d="M163.414525,22.2112414 L163.414525,25.7221292 C162.151136,24.5274521 160.644787,23.9179229 158.895479,23.9179229 C157.534906,23.9179229 156.392997,24.3567839 155.494047,25.2345059 C154.595097,26.1122278 154.15777,27.2337614 154.15777,28.5503443 C154.15777,29.8669272 154.595097,30.9884608 155.494047,31.8661828 C156.392997,32.7439047 157.534906,33.1827657 158.895479,33.1827657 C160.669083,33.1827657 162.199728,32.5732366 163.414525,31.3785595 L163.414525,34.8894472 C162.199728,35.889075 160.620491,36.3766983 158.701112,36.3766983 C156.417293,36.3766983 154.522209,35.6452634 152.991565,34.1580123 C151.436624,32.6707612 150.68345,30.8177927 150.68345,28.5747255 C150.68345,26.3316583 151.436624,24.4786897 152.991565,22.9914387 C154.546505,21.5041876 156.441589,20.7727527 158.701112,20.7727527 C160.596195,20.6996092 162.175432,21.2116136 163.414525,22.2112414 Z" id="Path"></path>
                            <path d="M173.667414,36.327936 L173.667414,21.1384701 L177.117438,21.1384701 L177.117438,23.2352503 C177.82202,21.7967616 179.474144,20.8458961 181.587892,20.8458961 C185.086508,20.8458961 187.151663,23.0889633 187.151663,26.7461381 L187.151663,35.8646938 L183.653047,35.8646938 L183.653047,27.2337614 C183.653047,25.2101247 182.486842,23.9666853 180.543166,23.9666853 C178.550898,23.9666853 177.141734,25.3807929 177.141734,27.3800484 L177.141734,36.327936 L173.667414,36.327936 Z" id="Path"></path>
                            <path d="M189.994288,28.5259631 C189.994288,26.2097525 190.698871,24.3324028 192.132332,22.9426763 C193.565792,21.5041876 195.387988,20.7971338 197.623215,20.7971338 C199.761258,20.7971338 201.461974,21.5041876 202.773955,22.9426763 C204.110232,24.3567839 204.790519,26.1122278 204.790519,28.1846268 C204.790519,28.6234878 204.766223,29.0623488 204.741927,29.4524474 L193.492905,29.4524474 C193.614384,31.7930393 195.339396,33.2802903 197.914766,33.2802903 C200.222881,33.2802903 201.972189,32.7195235 203.186987,31.5736088 L203.186987,34.8406849 C201.753526,35.8403127 199.955626,36.327936 197.768991,36.327936 C195.460876,36.327936 193.565792,35.6208822 192.132332,34.2555369 C190.698871,32.8414294 189.994288,30.9884608 189.994288,28.6722501 L189.994288,28.5259631 Z M201.219015,26.9411874 C201.219015,26.0878466 200.878872,25.3320305 200.174289,24.7225014 C199.469707,24.1129723 198.619349,23.7960171 197.598919,23.7960171 C196.529898,23.7960171 195.582356,24.1129723 194.804886,24.7225014 C194.027415,25.3320305 193.614384,26.0634655 193.541496,26.9411874 L201.219015,26.9411874 Z" id="Shape" fill-rule="nonzero"></path>
                            <path d="M166.184263,17.57882 C166.184263,16.4085241 167.107508,15.506421 168.273714,15.506421 C169.415623,15.506421 170.338869,16.4085241 170.338869,17.57882 C170.338869,18.749116 169.415623,19.6512191 168.273714,19.6512191 C167.131804,19.6512191 166.184263,18.749116 166.184263,17.57882 Z" id="Path"></path>
                            <rect id="Rectangle" x="166.548702" y="21.1384701" width="3.49861605" height="15.1894658"></rect>
                            <polygon id="Path" points="72.4505074 15.506421 65.8663064 28.355295 59.3064013 15.5551833 59.2821054 15.506421 55.491938 15.506421 55.491938 36.327936 59.0877378 36.327936 59.0877378 23.040201 65.8663064 36.327936 72.644875 23.040201 72.644875 36.327936 76.2406748 36.327936 76.2406748 15.506421"></polygon>
                        </g>
                    </g>
                </g>
            </g>
        </g>
    </g>
</svg>