<?xml version="1.0" encoding="UTF-8"?>
<svg width="189px" height="50px" viewBox="0 0 189 50" version="1.1" xmlns="http://www.w3.org/2000/svg" xmlns:xlink="http://www.w3.org/1999/xlink">
    <!-- Generator: Sketch 52.5 (67469) - http://www.bohemiancoding.com/sketch -->
    <title>solen</title>
    <desc>Created with Sketch.</desc>
    <g id="Home" stroke="none" stroke-width="1" fill="none" fill-rule="evenodd">
        <g id="2019" transform="translate(-644.000000, -905.000000)" fill="#FFFFFF">
            <g id="trust" transform="translate(-368.000000, 796.000000)">
                <g id="logos" transform="translate(0.000000, 109.000000)">
                    <g id="solen" transform="translate(1012.000000, 0.000000)">
                        <g id="Group-47" transform="translate(74.393078, 14.583333)">
                            <g id="Group-14">
                                <path d="M0,26.5514844 C0,27.1911719 0.228090741,27.85375 0.50181523,28.2878125 C2.64613341,31.7146875 6.93461377,33.8622656 11.9074443,33.8622656 C18.7049228,33.8622656 22.9024477,29.795625 22.9024477,24.1755469 C22.9024477,19.2407812 20.1191791,15.9510156 13.5502593,14.8086719 L10.9038139,14.3517969 C7.75586523,13.8034375 6.34153103,12.3413281 6.34153103,10.0567187 C6.34153103,7.86351562 7.89268848,6.0815625 10.8125464,6.0815625 C12.8201193,6.0815625 14.7359567,6.99539062 16.150213,8.91445312 C16.7890855,9.78257812 17.7017605,10.2851562 18.7049228,10.2851562 C20.3477378,10.2851562 21.6707266,8.96015625 21.6707266,7.31523437 C21.6707266,6.56132812 21.3516803,5.78453125 20.8953428,5.21335937 C18.7283247,2.51757812 15.0323811,0.78125 10.8581801,0.78125 C4.10602336,0.78125 0.410625737,5.21335937 0.410625737,10.1024219 C0.410625737,15.2427344 3.46730687,18.3954687 9.44384592,19.4235937 L12.0899793,19.8804687 C15.420073,20.4516406 16.9716205,22.0508594 16.9716205,24.3582812 C16.9716205,26.6885937 15.1470505,28.5619531 11.9074443,28.5619531 C9.21575519,28.5619531 7.09429287,27.3739844 5.65718081,25.1807812 C4.97283058,24.1298437 4.15165711,23.5815625 2.96549166,23.5815625 C1.32306671,23.5815625 0,24.9066406 0,26.5514844 Z" id="Fill-1"></path>
                                <path d="M60.9503078,25.17625 C60.9503078,26.9353906 61.5891803,27.8492187 62.9581928,28.1005469 C64.1438902,28.3061719 65.0565652,29.3570312 65.0565652,30.5221875 C65.0565652,31.8929687 63.9613552,32.9896094 62.5931228,32.9896094 C57.7567255,32.9896094 55.3845505,30.4764844 55.3845505,25.6332031 L55.3845505,2.7871875 C55.3845505,1.23367187 56.6162717,0 58.1678192,0 C59.7185866,0 60.9503078,1.23367187 60.9503078,2.7871875 L60.9503078,25.17625 Z" id="Fill-2"></path>
                                <path d="M99.1734483,12.5277344 C100.313902,10.7 103.499684,9.375 106.237709,9.375 C111.255861,9.375 114.130397,12.9389062 114.130397,18.6960937 L114.130397,30.2104687 C114.130397,31.7639844 112.897896,32.9977344 111.347129,32.9977344 C109.795581,32.9977344 108.56386,31.7639844 108.56386,30.2104687 L108.56386,19.5185937 C108.56386,16.0460156 107.378162,14.2182812 104.412359,14.2182812 C102.679056,14.2182812 99.948832,15.360625 99.1734483,17.1425781 L99.1734483,30.2104687 C99.1734483,31.7639844 97.941727,32.9977344 96.3901797,32.9977344 C94.8394122,32.9977344 93.6076909,31.7639844 93.6076909,30.2104687 L93.6076909,12.4820312 C93.6076909,10.9285156 94.8394122,9.69484375 96.3901797,9.69484375 C97.941727,9.69484375 99.1734483,10.9285156 99.1734483,12.4820312 L99.1734483,12.5277344 Z" id="Fill-3"></path>
                                <path d="M38.9192894,9.37582031 C39.4902962,9.38636719 40.058183,9.42957031 40.6229494,9.51613281 C41.7673033,9.69160156 42.8851352,10.0312109 43.9343214,10.5219141 C45.1808637,11.1051172 46.327558,11.9006641 47.3119989,12.8635547 C48.2589967,13.7905078 49.0562222,14.8707422 49.6599919,16.0512891 C50.209937,17.1247266 50.5984089,18.2795703 50.8105864,19.4669922 C51.0391452,20.7447266 51.0633272,22.0592578 50.8831323,23.3446484 C50.708398,24.5933203 50.3394277,25.8133984 49.7918227,26.9491016 C49.1521702,28.2776953 48.2714778,29.4873828 47.2059102,30.5052734 C46.1013394,31.5597266 44.8009727,32.4058203 43.3882766,32.9840234 C41.9233162,33.5837109 40.3444664,33.8915234 38.7617164,33.8915234 C37.1797464,33.8915234 35.6016767,33.5837109 34.1367164,32.9840234 C32.7232403,32.4058203 31.4236534,31.5597266 30.3190828,30.5052734 C29.2527352,29.4873828 28.3720428,28.2776953 27.7316102,26.9491016 C27.1847852,25.8134766 26.816595,24.5931641 26.6410806,23.3446484 C26.4608858,22.0591016 26.4858478,20.7448047 26.7136266,19.4669922 C26.9086425,18.3772266 27.2518708,17.3144141 27.7316102,16.3173047 C28.2870158,15.1655078 29.0226162,14.1025391 29.9033086,13.1768359 C30.9540548,12.0729297 32.2099581,11.1673828 33.5898914,10.5219141 C34.6390777,10.0312109 35.7569095,9.69160156 36.9012636,9.51613281 C37.46603,9.42957031 38.0346967,9.38636719 38.6049236,9.37582031 C38.7624964,9.37472656 38.7624964,9.37472656 38.9192894,9.37582031 Z M38.6735692,14.7923047 C38.3537428,14.7982422 38.0354767,14.8223047 37.7203308,14.8707422 C37.0837986,14.9682422 36.4620875,15.1570703 35.8785995,15.4298828 C35.1078962,15.7905859 34.4058386,16.2974609 33.8184503,16.9144141 C33.2692852,17.4919141 32.8191881,18.1650391 32.5001419,18.8962109 C32.2294597,19.5151172 32.0523852,20.1741016 31.9759389,20.8452734 C31.8870116,21.6236328 31.9306952,22.4169141 32.1062095,23.1804297 C32.4229156,24.5567578 33.1795778,25.8153516 34.2326642,26.7522266 C34.78807,27.2458984 35.423042,27.6480078 36.1071583,27.9381641 C36.9176448,28.2820703 37.7936569,28.4629297 38.6735692,28.4740234 C39.5581619,28.4851953 40.4419745,28.3255078 41.264942,28.0005078 C42.0574872,27.6876172 42.7899673,27.2230859 43.4132386,26.6416016 C44.0154481,26.0795703 44.5178094,25.4100391 44.8836594,24.6713672 C45.194905,24.0436328 45.4086425,23.3694922 45.5147312,22.6766797 C45.6325209,21.9019922 45.6184798,21.1060547 45.4710477,20.3363672 C45.3501377,19.7063672 45.1395205,19.0937109 44.8477764,18.5229297 C44.1691206,17.1983984 43.0590895,16.1118359 41.7197194,15.4651953 C41.1151698,15.1731641 40.4677166,14.9723828 39.804662,14.8707422 C39.5175984,14.8267578 39.2297548,14.8032422 38.9395711,14.7939453 C38.8506437,14.7923047 38.7624964,14.7916797 38.6735692,14.7923047 Z" id="Fill-4" fill-rule="nonzero"></path>
                                <path d="M79.6073773,9.37505536 C79.9170628,9.37802411 80.2251881,9.39052411 80.5333134,9.41669598 C81.2026084,9.47364911 81.867223,9.58943036 82.5146762,9.76974286 C83.2533969,9.97552411 83.9702758,10.2641179 84.6426911,10.6341179 C85.3361681,11.0159929 85.9836212,11.482321 86.5663291,12.019196 C87.1404562,12.5483366 87.6521783,13.1447429 88.0936947,13.7886491 C88.7185259,14.6983366 89.2029458,15.6998209 89.5547547,16.7448209 C89.9463469,17.9073991 90.1756856,19.1236491 90.2614927,20.3468522 C90.2817744,20.6356803 90.2950355,20.9250553 90.2997159,21.2145866 C90.3020561,21.3520866 90.3059564,21.4906803 90.2997159,21.6281803 C90.2950355,21.7186491 90.2856747,21.8088053 90.2716336,21.8982584 C90.2217095,22.2115397 90.1125005,22.5145866 89.9502472,22.7870084 C89.7879939,23.0593522 89.5734762,23.2999772 89.3222956,23.4924772 C89.1421008,23.6299772 88.9439645,23.7427897 88.7341272,23.8269303 C88.52429,23.9109928 88.3027519,23.9663053 88.0780933,23.9909147 C87.9579634,24.0040397 87.9275409,24.0023991 87.8074111,24.0056803 L73.3044595,24.0056803 C73.6016639,24.7973209 74.04006,25.5341178 74.5923453,26.1732584 C75.0791053,26.7360709 75.6540125,27.2224772 76.2889847,27.6093522 C76.8568714,27.9550553 77.4723419,28.2201334 78.1135547,28.3942741 C79.1213975,28.6678678 80.1885252,28.7133366 81.2166495,28.5340397 C81.7502134,28.4409147 82.2736364,28.2847428 82.7720973,28.0713834 C83.3134619,27.8393522 83.8267441,27.5392741 84.2947825,27.1809147 C84.5217811,27.0070084 84.7362987,26.8185709 84.9430158,26.6209928 L85.0452042,26.5286491 C85.081087,26.4998209 85.1154098,26.4699772 85.152073,26.4421647 C85.2253989,26.3864616 85.3010652,26.3348209 85.3798517,26.2874772 C85.6942175,26.0979459 86.0499267,25.9794303 86.4149967,25.9424772 C86.6887992,25.9147428 86.966502,25.9327897 87.2348441,25.9956022 C87.4579423,26.0479459 87.67324,26.1312272 87.8744966,26.2423991 C88.1553197,26.3981803 88.4049402,26.6084147 88.6069767,26.8585709 C88.8082333,27.1086491 88.9611259,27.3977116 89.0539536,27.7054459 C89.1202589,27.9252116 89.1561419,28.1540397 89.1600422,28.3836491 C89.1662828,28.7051334 89.1093381,29.0270866 88.9938886,29.3270866 C88.8948205,29.5841959 88.7536289,29.8245084 88.5765542,30.0355241 C88.4899672,30.1384147 88.3947994,30.2314616 88.2972914,30.3235709 C88.16,30.4534147 88.0195886,30.5801334 87.8768369,30.7035709 C87.0827316,31.3880241 86.2004791,31.9689616 85.2581617,32.4270084 C84.4071117,32.8406803 83.5076978,33.1531022 82.5841019,33.3566178 C80.6846459,33.7749772 78.6861217,33.7272428 76.8085073,33.2179459 C75.7624414,32.9340397 74.7561587,32.5078678 73.8232022,31.9557584 C72.8208198,31.3627116 71.9050245,30.6235709 71.1124794,29.7703678 C70.4837478,29.0940397 69.9314623,28.3459928 69.4720047,27.5447428 C68.8183109,26.4060709 68.3518327,25.1626334 68.0967516,23.8745084 C67.8728733,22.7465397 67.8159286,21.5904459 67.9071961,20.4445866 C67.9859825,19.4595866 68.1755381,18.4831803 68.477423,17.5422428 C68.8159708,16.4890397 69.29337,15.4799772 69.9010398,14.556071 C70.5289914,13.6027897 71.2926742,12.7406022 72.1686862,12.0095085 C73.0930622,11.2383366 74.1391281,10.617321 75.25774,10.1752897 C76.0892883,9.84693036 76.9598398,9.61950848 77.8436525,9.49333661 C78.3514742,9.42091473 78.8631962,9.38380536 79.3756983,9.37575848 C79.4529247,9.37505536 79.5301511,9.37489911 79.6073773,9.37505536 Z M79.4833472,14.3726335 C78.9841061,14.3774772 78.4864253,14.4307585 77.9988852,14.5427116 C77.3857548,14.6837272 76.7944662,14.9149772 76.2492014,15.2297429 C75.86697,15.4506022 75.5081406,15.7126334 75.1805136,16.0079459 C74.8372855,16.3159928 74.52838,16.6609147 74.2569178,17.0333366 C73.9604934,17.4406803 73.7085327,17.8803678 73.5057161,18.3415397 C73.4121083,18.5531803 73.3302016,18.7692741 73.2560955,18.9881803 L73.249075,19.0080241 L85.020242,19.0080241 C84.9991803,18.9242741 84.9773386,18.8409147 84.9547167,18.7576334 C84.7737419,18.1234147 84.5280217,17.5066178 84.1871336,16.9404459 C83.960135,16.5625553 83.6949133,16.2079459 83.387568,15.8916959 C83.1231262,15.6196647 82.8274819,15.3770866 82.5076556,15.1732585 C82.1613072,14.9521647 81.7853162,14.776696 81.3937241,14.6498991 C80.8515795,14.4740397 80.284473,14.3905241 79.7150262,14.374821 C79.6377998,14.3730241 79.5605736,14.3724772 79.4833472,14.3726335 Z" id="Fill-5" fill-rule="nonzero"></path>
                            </g>
                        </g>
                        <g id="Group-46">
                            <path d="M34.2209567,44.7208289 C34.2414,44.8994383 34.2519052,45.0810681 34.2519052,45.2651516 L34.2519052,49.2582419 C34.2519052,49.6679036 33.9198087,50 33.510147,50 L23.8245637,50 C23.414902,50 23.0828056,49.6679036 23.0828056,49.2582419 L23.0828056,45.2651516 C23.0828056,45.0810681 23.0933106,44.8994383 23.1137541,44.7208289 C23.0931217,44.5502945 23.0828056,44.3733439 23.0828056,44.1899767 C23.0828056,40.4952045 25.5830937,37.8787878 28.6673553,37.8787878 C31.751617,37.8787878 34.2519052,40.4952045 34.2519052,44.1899767 C34.2519052,44.3733439 34.2415889,44.5502945 34.2209567,44.7208289 Z" id="Combined-Shape"></path>
                            <path d="M28.6669223,26.50671 L13.5166791,44.3131223 C13.4084136,44.4344531 13.299282,44.5504703 13.1771585,44.6576311 C12.8939359,44.9047211 12.5700055,45.1013302 12.2218235,45.2368311 C11.9238768,45.3528481 11.6094738,45.4236983 11.2916062,45.4467247 C10.8135057,45.4803784 10.3302085,45.4051002 9.88415453,45.2270892 C9.43810061,45.0490781 9.03275452,44.7692202 8.70449348,44.4131981 C8.48536408,44.1758502 8.30087964,43.9057341 8.15883528,43.6143628 C7.99253945,43.2733964 7.88514006,42.9040902 7.84096772,42.5259275 C7.79073253,42.0937416 7.82451136,41.6526994 7.93970587,41.233798 C8.02545216,40.9202861 8.15796916,40.6200586 8.32946173,40.3446286 C8.41607414,40.2064709 8.51308005,40.0798262 8.61528269,39.9531816 L26.1698864,19.3225055 C26.2053975,19.2826523 26.2400425,19.2410278 26.2772858,19.2020603 C26.3872836,19.0842719 26.5068087,18.9753398 26.6323967,18.8752639 C27.010893,18.575922 27.4543486,18.3642573 27.9220556,18.2588677 C28.0770917,18.2234427 28.2355925,18.2004164 28.3949594,18.1889031 C28.447793,18.1853606 28.5006264,18.184475 28.5543262,18.1818181 C28.6071597,18.1818181 28.6599933,18.1818181 28.713693,18.1827037 C28.8730598,18.19156 29.0306944,18.2039589 29.1891952,18.2322989 C29.5555656,18.2987209 29.9098105,18.4306794 30.2328747,18.6193178 C30.3212194,18.6715698 30.4078319,18.7273642 30.4918458,18.7875869 C30.6520787,18.8850058 30.8045167,18.9965948 30.9465609,19.1205827 C31.0686845,19.2277434 31.1778161,19.3437605 31.2860817,19.4650914 L48.7185619,39.9540672 C48.8207645,40.0798262 48.9186366,40.2064709 49.0052491,40.3446286 C49.1767416,40.6200586 49.3083925,40.9202861 49.3950048,41.2346836 C49.5101994,41.6526994 49.5439783,42.0946272 49.493743,42.5259275 C49.4495706,42.9040902 49.3413052,43.2733964 49.1758755,43.6143628 C49.0338311,43.9057341 48.8493467,44.1767358 48.6302173,44.4131981 C48.3019562,44.7692202 47.8957441,45.0490781 47.4505562,45.2270892 C47.0045023,45.4051002 46.521205,45.4803784 46.0431045,45.4467247 C45.7252369,45.4236983 45.4099678,45.3528481 45.1120211,45.2368311 C44.7647053,45.1013302 44.4399087,44.9047211 44.1575523,44.6576311 C44.0354287,44.5504703 43.9262972,44.4344531 43.8180316,44.3131223 L28.6669223,26.50671 Z" id="Fill-14"></path>
                            <path d="M45.7994234,25.9439922 L54.0864117,25.9439922 L54.3411028,25.9537188 C54.4251334,25.9643295 54.5100305,25.9705192 54.5940612,25.984667 C54.7621227,26.0120783 54.9284516,26.0518689 55.0895827,26.1058072 C55.6570066,26.2941494 56.1689875,26.6434223 56.5562219,27.1058775 C56.7771273,27.3702638 56.9573169,27.6700197 57.0872614,27.990997 C57.2172058,28.3110903 57.2977712,28.6532894 57.3246264,28.9990255 C57.3514817,29.3456456 57.3246264,29.695803 57.2449272,30.0335808 C57.1253784,30.5402477 56.8880133,31.0168506 56.5562219,31.412988 C56.2798734,31.743692 55.9402853,32.0169208 55.5608477,32.2141053 C55.2576441,32.3714992 54.9301841,32.4802602 54.5940612,32.5341984 C54.3705569,32.5704522 54.312515,32.5660309 54.0864117,32.5757575 L45.7994234,32.5757575 C46.2039837,30.3855066 46.2039837,28.1333589 45.7994234,25.9439922 Z M11.5339483,25.9439922 C11.1302543,28.1333589 11.129388,30.3855066 11.5339483,32.5757575 L3.24782625,32.5757575 C3.02172297,32.5660309 2.96454744,32.5704522 2.74017675,32.5341984 C2.40405387,32.4802602 2.07659395,32.3714992 1.77339033,32.2141053 C1.47018669,32.0567114 1.19123935,31.8498003 0.951275341,31.6039828 C0.710445031,31.3590497 0.507731748,31.0743259 0.353531045,30.7648434 C0.0433970489,30.1441103 -0.0674888494,29.4287638 0.0399318645,28.7408288 C0.0927759255,28.3977453 0.199330344,28.0635044 0.353531045,27.754022 C0.507731748,27.4445395 0.710445031,27.1607 0.951275341,26.9148827 C1.37316153,26.48426 1.90939881,26.1774303 2.48981719,26.0350684 C2.65527973,25.9943936 2.82334117,25.9678666 2.9931352,25.9537188 C3.07803222,25.9475291 3.16292923,25.9475291 3.24782625,25.9439922 L11.5339483,25.9439922 Z M38.4870183,14.5470822 L44.3440459,8.56876666 C44.4913164,8.42552053 44.6429181,8.29023252 44.8127122,8.17351344 C45.1904173,7.9100113 45.6218327,7.73051152 46.0723067,7.64916186 C46.2741537,7.6129082 46.4751344,7.60052891 46.6787139,7.5978762 C46.7298255,7.59964467 46.7800706,7.60229738 46.831182,7.60406584 C46.9836502,7.61644514 47.1335194,7.63236138 47.2842548,7.66330963 C47.6325059,7.73581692 47.9686287,7.86579953 48.2761639,8.04883625 C48.539518,8.20534592 48.7812145,8.3998777 48.9908581,8.62447348 C49.6267195,9.30445052 49.9541794,10.2488139 49.8788117,11.1861034 C49.8536891,11.4955858 49.7852517,11.8015313 49.6769647,12.0924447 C49.5686777,12.3833581 49.4205411,12.6583554 49.2368862,12.9068255 C49.1450589,13.0315027 49.0437022,13.145569 48.9380141,13.2587512 L43.0818527,19.2361825 C42.4780442,18.3324939 41.7832748,17.4739013 40.9984105,16.6727841 C40.2135462,15.8716667 39.3723728,15.1633942 38.4870183,14.5470822 Z M14.2523854,19.2361825 L8.39622386,13.2587512 C8.29053573,13.1446848 8.26108167,13.1181578 8.1649228,12.9961333 C7.94748248,12.7211361 7.77335697,12.4107694 7.65207552,12.0800654 C7.52992778,11.7493614 7.46062409,11.3992042 7.44676336,11.0463942 C7.4355015,10.7519438 7.46235669,10.4566092 7.52732889,10.170117 C7.7222455,9.30445052 8.26281427,8.54047113 9.00696259,8.07978448 C9.35174844,7.86579953 9.73551759,7.71813222 10.1340138,7.64739338 C10.3055404,7.61644514 10.4762007,7.60495008 10.64946,7.5978762 C10.7075018,7.59876044 10.7646773,7.59964467 10.8227192,7.60052891 C10.9959784,7.61202397 11.1666387,7.62882444 11.337299,7.66419386 C11.7331964,7.74554352 12.1135003,7.90293741 12.4522221,8.12664897 C12.5977598,8.22214639 12.7355009,8.33002311 12.864579,8.44762641 C12.9070275,8.48653277 12.9486098,8.52897606 12.990192,8.56876666 L18.8463534,14.5470822 C17.9618652,15.1633942 17.1198253,15.8716667 16.3349611,16.6727841 C15.5500969,17.4739013 14.8561937,18.3324939 14.2523854,19.2361825 Z M25.4180755,11.7723515 L25.4180755,3.31463995 C25.4241397,3.1333717 25.4215408,3.08739147 25.4431981,2.90700744 C25.4674544,2.70451753 25.5107692,2.50379611 25.57141,2.30926431 C25.7126162,1.85476733 25.9517139,1.43298704 26.2661794,1.08017712 C26.6265586,0.677850016 27.0830966,0.368367628 27.5872809,0.187099372 C27.8393731,0.0969073625 28.1018608,0.0376635913 28.3669473,0.0129050003 C28.5445381,-0.00389547222 28.5895855,0.000525704752 28.7671762,0.000525704752 C28.8338809,0.00406264633 28.9005858,0.00848382328 28.9664242,0.0129050003 C29.1431487,0.035010885 29.1881961,0.0367793558 29.3623216,0.0756857131 C29.5572383,0.119013247 29.7486897,0.180909725 29.9332108,0.260490911 C30.3637598,0.447064578 30.7527269,0.728251433 31.0680586,1.08017712 C31.3825241,1.43298704 31.6207555,1.85476733 31.762828,2.30926431 C31.8234687,2.50379611 31.8667836,2.70451753 31.8910398,2.90700744 C31.9126972,3.08739147 31.9100984,3.1333717 31.9152961,3.31463995 L31.9152961,11.7723515 C29.770347,11.3594136 27.5638909,11.3594136 25.4180755,11.7723515 Z" id="Fill-15" fill-rule="nonzero"></path>
                        </g>
                    </g>
                </g>
            </g>
        </g>
    </g>
</svg>