<?xml version="1.0" encoding="UTF-8"?>
<svg width="176px" height="51px" viewBox="0 0 176 51" version="1.1" xmlns="http://www.w3.org/2000/svg" xmlns:xlink="http://www.w3.org/1999/xlink">
    <!-- Generator: Sketch 52.5 (67469) - http://www.bohemiancoding.com/sketch -->
    <title>switfi-black</title>
    <desc>Created with Sketch.</desc>
    <g id="Home" stroke="none" stroke-width="1" fill="none" fill-rule="evenodd">
        <g id="trust-copy" transform="translate(-86.000000, -138.000000)" fill="#FFFFFF">
            <g id="logos" transform="translate(86.000000, 138.000000)">
                <g id="switfi-black">
                    <g id="Logo">
                        <path d="M32.8265299,23.5368956 C29.1331834,19.7796904 23.1226051,19.7790458 19.4292861,23.5368956 C16.082406,26.9416123 15.7786625,32.2750109 18.4963774,36.0433697 L6.59314269,48.1535535 C5.95298687,48.804808 6.59496069,49.2072636 7.23514405,49.8586021 C7.55483633,50.1841873 7.33226925,51 7.75170353,51 C8.17116536,51 8.59059961,50.8373475 8.91029189,50.5116502 L21.8868619,37.3095593 C22.5270177,36.6583608 22.5270177,35.6026891 21.8868619,34.9514626 C21.8625944,34.9267172 21.8341951,34.9093142 21.8087155,34.8864184 C21.7867618,34.8612526 21.7701243,34.8330042 21.7464628,34.8088754 C19.3308387,32.3512927 19.3308387,28.3526311 21.7464628,25.8950203 C24.162693,23.4373817 28.0930679,23.4373817 30.5092705,25.8950203 C32.9249222,28.3526311 32.9249222,32.3512927 30.5092705,34.8088754 C29.33881,35.9994277 27.7833471,36.655138 26.1287757,36.655138 L26.1275361,36.655138 C25.2228615,36.655138 24.4887207,37.4014226 24.4887207,38.322186 C24.4887207,39.2432014 25.222283,39.9898223 26.1275361,39.9898223 L26.1281972,39.9898223 C28.6585481,39.9898223 31.0371787,38.9874525 32.8265299,37.1669721 C36.5205099,33.4090944 36.5205099,27.2947453 32.8265299,23.5368956" id="Fill-17"></path>
                        <path d="M44.8795438,51 L7.97400663,51 C7.06492385,51 6.32835821,50.2863866 6.32835821,49.4062366 C6.32835821,48.5261134 7.06492385,47.8125 7.97400663,47.8125 L44.8795438,47.8125 C45.7886543,47.8125 45.880597,48.5261134 45.880597,49.4062366 C45.880597,50.2863866 45.7886543,51 44.8795438,51" id="Fill-19"></path>
                        <path d="M52.8018588,26.9478659 C52.8279235,26.8983171 52.8563976,26.8505299 52.877452,26.798045 C52.899711,26.7425123 52.9130993,26.6848544 52.9293077,26.6276719 C52.9423674,26.5809472 52.9593697,26.5360401 52.968569,26.4878055 C52.9835452,26.4094557 52.9880354,26.3302111 52.9918958,26.2507987 C52.9931279,26.2228925 53,26.1966361 53,26.1683384 L52.9994251,26.1621588 C52.9990965,26.0521559 52.9886377,25.9421809 52.9670084,25.8340515 C52.9637503,25.8176657 52.9566866,25.8030415 52.9529631,25.7869074 C52.9324562,25.6976523 52.9081437,25.6091243 52.8729345,25.5236162 C52.8528109,25.4747105 52.8241178,25.4310058 52.7996958,25.3846166 C52.7725907,25.3329986 52.7490448,25.2801223 52.7161901,25.2311606 C52.6575719,25.1436113 52.5912054,25.0620738 52.5177204,24.9876106 C52.5177204,24.9876106 52.5145718,24.9833604 52.5127374,24.9814031 L27.8655521,0.262680449 C27.2230511,-0.381091046 26.8305195,0.280827853 26.1998462,0.935672337 C25.5692551,1.59127181 24.9404708,1.99283557 25.5823147,2.6365791 L47.3870757,24.5047051 L44.9381959,24.5047051 C44.0384151,24.5047051 43.3092872,25.2496435 43.3092872,26.1683384 L43.3092872,49.3363388 C43.3092872,50.2550896 44.0384151,51 44.9381959,51 C45.8380587,51 46.5671866,50.2550896 46.5671866,49.3363388 L46.5671866,27.8319438 L51.3710914,27.8319438 C51.4785536,27.8319438 51.586098,27.8205352 51.6916985,27.7989484 C51.7461004,27.7879034 51.7964228,27.7673513 51.8486344,27.7508536 C51.8982724,27.7353067 51.948896,27.7242338 51.997384,27.7037095 C52.066379,27.6742655 52.1299528,27.6351744 52.1938552,27.5966706 C52.2218638,27.5798653 52.2519259,27.5680933 52.2790584,27.5493587 C52.3690802,27.4876463 52.4521205,27.4167065 52.5281518,27.3383567 L52.5332443,27.3339387 C52.5552843,27.3110657 52.5705069,27.2843898 52.590959,27.2605661 C52.6396934,27.2037751 52.6886195,27.1473476 52.7294416,27.0842092 C52.7577513,27.0405044 52.7779843,26.9936119 52.8018588,26.9478659" id="Fill-21"></path>
                        <path d="M8.1975009,42.234375 C7.28253922,42.234375 6.54121039,41.4887735 6.54121039,40.5692328 L6.54121039,28.0709972 L1.65646886,28.0709972 C0.982928357,28.0709972 0.377204039,27.6613795 0.122503617,27.0346108 C-0.131612183,26.4078141 0.0172437748,25.6886323 0.498220843,25.2154002 L25.6629789,0.474674095 C26.3181178,-0.168411043 27.3661784,-0.156572544 28.0055324,0.501121804 C28.6448864,1.15848031 28.6334445,2.21269438 27.9795584,2.85577952 L5.71937071,24.7408248 L8.1975009,24.7408248 C9.11249037,24.7408248 9.85381917,25.4863983 9.85381917,26.405911 L9.85381917,40.5692328 C9.85381917,41.4887735 9.11249037,42.234375 8.1975009,42.234375" id="Fill-23"></path>
                    </g>
                    <g id="Switfi-Blanc-Copy" transform="translate(68.000000, 22.000000)">
                        <path d="M11.9789938,12.4189344 C11.9294921,12.411144 11.8779519,12.4053142 11.8254707,12.4009289 C11.434737,12.3553733 4.72159096,11.4978134 4.69629127,8.1717378 C4.68850273,7.15589408 5.03072802,6.29250431 5.71397634,5.60550711 C6.75586337,4.55561277 8.57723159,3.97783554 10.839933,3.97783554 C13.6021463,3.97783554 15.654923,4.81728668 17.1147253,6.54447895 C17.8252597,7.38356895 19.0799986,7.48948704 19.9207427,6.78051171 C20.7604413,6.07163956 20.8654559,4.81687395 20.1569079,3.97783554 C17.9253084,1.33824124 14.7908656,3.55271368e-15 10.839933,3.55271368e-15 C7.45955006,3.55271368e-15 4.70998656,0.969256262 2.88851378,2.80277935 C1.45103167,4.24920872 0.699829661,6.11580219 0.715302196,8.20129993 C0.758060755,13.8285788 7.44491387,15.973304 11.4249621,16.3588499 C17.5628016,17.3542633 17.5628016,19.2945815 17.5628016,20.5803538 C17.5628016,22.9790141 14.5702775,24.7883407 10.6027745,24.7883407 C7.61312542,24.7883407 4.82948053,23.7807516 3.51060376,22.22211 C2.8010626,21.3829684 1.5453305,21.2785981 0.70557959,21.9860257 C-0.13417132,22.6950525 -0.239185922,23.949715 0.470407517,24.7887534 C2.57556086,27.2792472 6.36418869,28.766073 10.6027745,28.766073 C16.9426979,28.766073 21.5437906,25.3233998 21.5437906,20.5803538 C21.5437906,14.7001201 16.4324702,13.1298187 11.9789938,12.4189344" id="Fill-4"></path>
                        <path d="M56.7773605,10.697799 C55.7869614,10.2336786 54.5973535,10.6431117 54.1220435,11.6167016 L48.8580363,22.4095123 L43.2121294,11.5705269 C42.8719426,10.9175804 42.1867603,10.506806 41.4393218,10.506806 C40.6918834,10.506806 40.0066488,10.9175804 39.6664621,11.5705269 L34.0205551,22.4095123 L28.7565479,11.6167016 C28.2812379,10.6435244 27.0896959,10.2332143 26.101231,10.697799 C25.109891,11.1630544 24.6900417,12.3287725 25.1643063,13.3009695 L32.1650532,27.6552693 C32.4926946,28.3253444 33.177877,28.7551562 33.935038,28.7652166 C34.7203214,28.7576326 35.3890381,28.3624389 35.734086,27.7014956 L41.4393218,16.7495241 L47.1445576,27.7014956 C47.485633,28.3548549 48.1699267,28.7652166 48.9174174,28.7652166 L48.9436057,28.7652166 C49.7007145,28.7551562 50.3859491,28.3253444 50.7135382,27.6552693 L57.7142852,13.3009695 C58.188602,12.3287725 57.7687003,11.1630544 56.7773605,10.697799" id="Fill-5"></path>
                        <path d="M64.0834338,10.5257557 C62.9841521,10.5257557 62.0928609,11.4053968 62.0928609,12.4903737 L62.0928609,26.8005625 C62.0928609,27.8855392 62.9841521,28.7652321 64.0834338,28.7652321 C65.182611,28.7652321 66.0739022,27.8855392 66.0739022,26.8005625 L66.0739022,12.4903737 C66.0739022,11.4053968 65.182611,10.5257557 64.0834338,10.5257557" id="Fill-6"></path>
                        <path d="M82.0330589,10.2549294 L76.5737629,10.2549294 L76.5737629,1.96669715 C76.5737629,0.881771946 75.682524,0.00213074379 74.5831377,0.00213074379 C73.4839082,0.00213074379 72.5926692,0.881771946 72.5926692,1.96669715 L72.5926692,26.8476452 C72.5926692,27.932622 73.4839082,28.8123664 74.5831377,28.8123664 C75.682524,28.8123664 76.5737629,27.932622 76.5737629,26.8476452 L76.5737629,14.1841138 L82.0330589,14.1841138 C83.1323401,14.1841138 84.0235791,13.3044726 84.0235791,12.2195474 C84.0235791,11.1345705 83.1323401,10.2549294 82.0330589,10.2549294" id="Fill-7"></path>
                        <path d="M98.0233642,0.00210494786 L96.4022501,0.00210494786 C91.2607163,0.00210494786 87.0774864,4.13089827 87.0774864,9.20542195 L87.0774864,26.7194652 C87.0774864,27.8043904 87.9687778,28.6841348 89.068059,28.6841348 C90.1672369,28.6841348 91.0585276,27.8043904 91.0585276,26.7194652 L91.0585276,14.4357531 L96.517876,14.4357531 C97.6171571,14.4357531 98.5084486,13.5560603 98.5084486,12.4710835 C98.5084486,11.3861067 97.6171571,10.5065171 96.517876,10.5065171 L91.0585276,10.5065171 L91.0585276,9.20542195 C91.0585276,6.29698248 93.4558822,3.93128936 96.4022501,3.93128936 L98.0233642,3.93128936 C99.1226454,3.93128936 100.013937,3.05164816 100.013937,1.96672295 C100.013937,0.881746152 99.1226454,0.00210494786 98.0233642,0.00210494786" id="Fill-8"></path>
                        <path d="M64.0837788,0.00210494786 C62.957786,0.00210494786 62.0450633,0.903001992 62.0450633,2.01429065 C62.0450633,3.12563089 62.957786,4.02647634 64.0837788,4.02647634 C65.2096671,4.02647634 66.1224421,3.12563089 66.1224421,2.01429065 C66.1224421,0.903001992 65.2096671,0.00210494786 64.0837788,0.00210494786" id="Fill-9"></path>
                        <path d="M105.200435,10.5257557 C104.101153,10.5257557 103.209862,11.4053968 103.209862,12.4903737 L103.209862,26.8005625 C103.209862,27.8855392 104.101153,28.7652321 105.200435,28.7652321 C106.299717,28.7652321 107.190955,27.8855392 107.190955,26.8005625 L107.190955,12.4903737 C107.190955,11.4053968 106.299717,10.5257557 105.200435,10.5257557" id="Fill-10"></path>
                        <path d="M105.200769,4.02647119 C106.326762,4.02647119 107.239485,3.12562573 107.239485,2.01433708 C107.239485,0.902996835 106.326762,0.00209978867 105.200769,0.00209978867 C104.074777,0.00209978867 103.162054,0.902996835 103.162054,2.01433708 C103.162054,3.12562573 104.074777,4.02647119 105.200769,4.02647119" id="Fill-11"></path>
                    </g>
                </g>
            </g>
        </g>
    </g>
</svg>